<svg width="520" height="360" viewBox="0 0 520 360" xmlns="http://www.w3.org/2000/svg">
  <rect width="520" height="360" fill="#ffffff"/>
  <g transform="translate(40 55)">
    <path d="M28 160c18-30 44-58 76-84 32-26 66-43 101-49l54 9 41 40 38 10 34 40-7 34-31 19H112c-31 0-55-5-72-19-17-15-21-37-12-61z" fill="#1a1d24"/>
    <path d="M38 154c18-28 43-55 72-78 30-24 61-39 92-45l48 8 34 32 20 7 27 26-20 11-31-16-28 8-27 17-19 24-28 21H71c-14 0-25-5-33-15z" fill="#2d4cff" opacity=".28"/>
    <path d="M94 161l43-49 52 2-34 47H94z" fill="#171717"/>
    <path d="M150 106l32-38 43 9-30 35z" fill="#20242b"/>
    <path d="M206 78l39-25 43 10-38 21z" fill="#232835"/>
    <path d="M255 89l32-21 25 11-33 18z" fill="#2c3441"/>
    <path d="M108 173h198c17 0 31 13 31 30v2H77l31-32z" fill="#252830"/>
    <path d="M302 79l14 8-16 12-15-8z" fill="#4f7cff"/>
    <rect x="183" y="58" width="47" height="28" rx="4" fill="#4f7cff"/>
  </g>
</svg>
