<svg width="520" height="360" viewBox="0 0 520 360" xmlns="http://www.w3.org/2000/svg">
  <rect width="520" height="360" fill="#ffffff"/>
  <g transform="translate(135 35)">
    <ellipse cx="125" cy="48" rx="82" ry="18" fill="#f5d400"/>
    <rect x="43" y="48" width="164" height="204" rx="16" fill="#ffd800" stroke="#d1b000" stroke-width="4"/>
    <ellipse cx="125" cy="48" rx="82" ry="18" fill="#ffe600" stroke="#d1b000" stroke-width="4"/>
    <ellipse cx="125" cy="252" rx="82" ry="18" fill="#ebc800"/>
    <circle cx="125" cy="148" r="58" fill="#ffe94a" stroke="#222" stroke-width="3"/>
    <text x="125" y="135" text-anchor="middle" font-size="26" font-weight="700" font-family="Arial">pr 88</text>
    <text x="125" y="105" text-anchor="middle" font-size="16" font-family="Arial">rath's</text>
    <text x="125" y="159" text-anchor="middle" font-size="11" font-family="Arial">the wash-off</text>
    <text x="125" y="173" text-anchor="middle" font-size="11" font-family="Arial">hand protection</text>
    <path d="M84 122c3-12 8-19 16-21 4 10 5 19 2 28 8-10 18-14 28-12-1 12-7 22-19 29-12 6-24 7-37 4 0-13 3-22 10-28z" fill="#111"/>
  </g>
</svg>
